<svg width="85" height="25" viewBox="0 0 85 25" fill="none" xmlns="http://www.w3.org/2000/svg">
<path d="M73.598 13.0882H83.549C84.101 13.0882 84.549 12.6402 84.549 12.0872C84.549 11.5342 84.101 11.0872 83.549 11.0872H73.598L78.321 6.36325C78.712 5.97225 78.712 5.34025 78.321 4.94925C77.93 4.55825 77.298 4.55825 76.907 4.94925L70.77 11.0872H66.708L76.087 1.70725C76.478 1.31625 76.478 0.68425 76.087 0.29325C75.696 -0.09775 75.064 -0.09775 74.673 0.29325L63.88 11.0872H44.688L20.669 11.0882L9.876 0.294249C9.485 -0.0967506 8.853 -0.0967506 8.462 0.294249C8.071 0.685249 8.071 1.31725 8.462 1.70825L17.841 11.0882H13.779L7.642 4.95025C7.251 4.55925 6.619 4.55925 6.228 4.95025C5.837 5.34125 5.837 5.97325 6.228 6.36425L10.951 11.0882H1C0.448 11.0882 0 11.5352 0 12.0882C0 12.6412 0.448 13.0882 1 13.0882H10.951L6.228 17.8112C5.837 18.2022 5.837 18.8342 6.228 19.2252C6.423 19.4202 6.679 19.5182 6.935 19.5182C7.191 19.5182 7.447 19.4202 7.642 19.2252L13.779 13.0882H17.84L8.461 22.4672C8.07 22.8582 8.07 23.4902 8.461 23.8812C8.656 24.0762 8.912 24.1742 9.168 24.1742C9.424 24.1742 9.68 24.0762 9.875 23.8812L20.669 13.0882H44.689H63.88L74.673 23.8812C74.868 24.0762 75.124 24.1742 75.38 24.1742C75.636 24.1742 75.892 24.0762 76.087 23.8812C76.478 23.4902 76.478 22.8582 76.087 22.4672L66.708 13.0882H70.77L76.907 19.2252C77.102 19.4202 77.358 19.5182 77.614 19.5182C77.87 19.5182 78.126 19.4202 78.321 19.2252C78.712 18.8342 78.712 18.2022 78.321 17.8112L73.598 13.0882Z" fill="white"/>
</svg>
